<svg width="23" height="42" viewBox="0 0 23 42" fill="none" xmlns="http://www.w3.org/2000/svg">
<g id="Shape">
<g id="Group">
<g id="Clip path group">
<mask id="mask0_174_839" style="mask-type:luminance" maskUnits="userSpaceOnUse" x="0" y="14" width="23" height="17">
<g id="SVGID_2_">
<path id="Vector" d="M10.3485 15.1834C10.3485 15.1834 6.15256 14.2421 4.16233 15.0194C1.42568 16.088 0.593908 19.1168 0 20.5935C0.497868 21.8776 2.60827 23.0589 4.28823 23.6757L22.355 30.2896L22.4546 20.3554L10.3485 15.1834Z" fill="white"/>
</g>
</mask>
<g mask="url(#mask0_174_839)">
<path id="Vector_2" d="M22.4548 14.2421H0V30.2896H22.4548V14.2421Z" fill="url(#paint0_linear_174_839)"/>
</g>
</g>
</g>
<g id="Group_2">
<g id="Clip path group_2">
<mask id="mask1_174_839" style="mask-type:luminance" maskUnits="userSpaceOnUse" x="0" y="0" width="23" height="21">
<g id="SVGID_5_">
<path id="Vector_3" d="M6.41803 6.16226C3.0285 7.4827 0.000244141 8.72649 0.000244141 11.4649V20.5937C1.02559 18.0432 10.3485 15.1833 10.3485 15.1833L22.2873 10.8931L22.358 0L6.41803 6.16226Z" fill="white"/>
</g>
</mask>
<g mask="url(#mask1_174_839)">
<path id="Vector_4" d="M22.3575 0H-0.000305176V20.5935H22.3575V0Z" fill="url(#paint1_linear_174_839)"/>
</g>
</g>
</g>
<path id="Vector_5" opacity="0.15" fill-rule="evenodd" clip-rule="evenodd" d="M0.0497619 10.8774C0.0174167 11.0655 0 11.2609 0 11.4649V20.5937C0.97384 18.171 9.43262 15.4697 10.2791 15.2047L0.0497619 10.8774Z" fill="#6140FF"/>
<g id="Group_3">
<g id="Clip path group_3">
<mask id="mask2_174_839" style="mask-type:luminance" maskUnits="userSpaceOnUse" x="0" y="20" width="23" height="22">
<g id="SVGID_8_">
<path id="Vector_6" d="M16.037 35.0249C19.4266 33.7045 22.4548 32.4607 22.4548 29.7223V20.5935C21.4295 23.1443 12.1066 26.0038 12.1066 26.0038L0.167708 30.2941L0.0970459 41.1869L16.037 35.0249Z" fill="white"/>
</g>
</mask>
<g mask="url(#mask2_174_839)">
<path id="Vector_7" d="M22.4548 20.5935H0.0970459V41.1869H22.4548V20.5935Z" fill="url(#paint2_linear_174_839)"/>
</g>
</g>
</g>
<path id="Vector_8" opacity="0.11" fill-rule="evenodd" clip-rule="evenodd" d="M22.4523 20.5989C21.416 23.1482 12.1066 26.0038 12.1066 26.0038L11.3706 26.2683L22.3553 30.2896L22.4523 20.5989Z" fill="#6140FF"/>
</g>
<defs>
<linearGradient id="paint0_linear_174_839" x1="8.61976" y1="24.7044" x2="45.7556" y2="-10.0229" gradientUnits="userSpaceOnUse">
<stop stop-color="#3618C6"/>
<stop offset="0.43" stop-color="#114FEE"/>
<stop offset="1" stop-color="#0276DB"/>
</linearGradient>
<linearGradient id="paint1_linear_174_839" x1="-0.717314" y1="17.0298" x2="25.413" y2="2.24037" gradientUnits="userSpaceOnUse">
<stop stop-color="#6140FF"/>
<stop offset="1" stop-color="#3717D3"/>
</linearGradient>
<linearGradient id="paint2_linear_174_839" x1="23.1718" y1="24.1574" x2="-2.95848" y2="38.9468" gradientUnits="userSpaceOnUse">
<stop stop-color="#6140FF"/>
<stop offset="1" stop-color="#4B2DDA"/>
</linearGradient>
</defs>
</svg>
